<svg width="24" height="24" viewBox="0 0 24 24" fill="none" xmlns="http://www.w3.org/2000/svg">
<path d="M21 7.75H3C2.59 7.75 2.25 7.41 2.25 7C2.25 6.59 2.59 6.25 3 6.25H21C21.41 6.25 21.75 6.59 21.75 7C21.75 7.41 21.41 7.75 21 7.75Z" fill="white"/>
<path d="M21.3846 12.5H6.61538C6.27897 12.5 6 12.16 6 11.75C6 11.34 6.27897 11 6.61538 11H21.3846C21.721 11 22 11.34 22 11.75C22 12.16 21.721 12.5 21.3846 12.5Z" fill="white"/>
<path d="M21.5385 17.5H10.4615C10.2092 17.5 10 17.16 10 16.75C10 16.34 10.2092 16 10.4615 16H21.5385C21.7908 16 22 16.34 22 16.75C22 17.16 21.7908 17.5 21.5385 17.5Z" fill="white"/>
</svg>
